<svg version="1" xmlns="http://www.w3.org/2000/svg" width="666.667" height="666.667" viewBox="0 0 500.000000 500.000000"><path d="M222 44c0 .3-1 .5-2.2.5-4.9.2-16.9 1.5-21 2.4-2.4.6-5.9 1.3-7.8 1.6-1.9.3-6 1.3-9 2.1s-6.5 1.7-7.8 2c-8.3 1.7-35.2 13.6-45.2 19.9-3.6 2.3-4.5 2.5-5.4 1.3-.6-.7-4.6-6-8.9-11.6-7.9-10.4-11.2-13.7-5.9-6 1.6 2.4 5.2 8 7.9 12.4l5.1 8.2-10.2 7.3c-11.1 8.1-29.1 25.4-37.9 36.4-20.1 25.3-36.6 61.3-41.2 89.5-.3 1.9-1 6-1.6 9-2.3 11.6-1.9 48 .6 60.9.3 1.4.8 4.2 1.1 6.1 1.9 12.3 8.5 33 14.5 46 5 10.6 13 25.2 16.6 29.9.6.9 3.9 5.3 7.3 9.9 12 16.1 34.2 36.6 51.8 47.8 7.7 5 26.5 14.6 33.7 17.4 3.3 1.2 8.1 3.1 10.7 4 5.4 2 28.3 7.7 34.3 8.5 11.4 1.5 18.4 1.9 32.5 1.9 18-.1 25.2-.7 39.5-3.7 9.3-2 21.2-5.2 25.8-7.2 2-.8 3.9-1.5 4.2-1.5.3 0 2.1-.7 4.1-1.5 2-.8 3.8-1.5 4-1.5.8 0 20.3-9.8 24.1-12.1 19-11.4 37.2-26.6 50.5-42 9.1-10.6 10.6-12.4 12.7-15.9l2.1-3.5v9.2c0 5.6-.4 9.3-1 9.3-.5 0-1 .5-1 1.1 0 .5.4.7 1 .4.6-.3 1-.1 1 .4 0 .6-.6 1.1-1.2 1.1-.9 0-1 .3-.2.8 1.4.9 1.4 4.2 0 4.2-.7 0-.7.3-.1.8 1.2.8 1.6 4.2.5 4.2-.4 0-.5 1.2-.2 2.6.3 1.9.1 2.5-.6 2-.8-.4-1-.2-.6.8.4.9-.5 2-2.5 3-3.7 1.9-6.5 2.1-5.5.4.6-1 .5-1-.7-.1-.9.7-4.8 1.2-10.1 1.1-4.7 0-9.1.3-9.7.6-1.5 1-1.4 13.3.1 14.2.6.4 3.6.6 6.6.5 4.3-.2 5.3 0 4.7 1.1-.6 1-.5 1.1.6 0 1.8-1.6 8.3-1.6 7.3.1-.6.9-.4.9.7 0 1.7-1.7 4.9-1.7 4.9-.1 0 .9.3.9.9-.1 1.2-1.9 4.2-2.3 6-.8.8.7 1.2.7.9.2-.4-.6 2.6-1 8.2-1 4.9-.1 8.6.3 8.3.8-.3.4-1.2.6-2.2.2-1.3-.5-1.3-.4-.4.6 1 1 1.6.9 3-.3s3.8-1.5 9.9-1.3c4.4.1 8.7.5 9.4 1 .8.5 1.1.4.7-.2-.4-.6 2.8-.9 9.1-.7 15.7.5 29.4.4 30.3-.2 1.2-.7 1.2-13.1 0-13.8-.5-.3-5.3-.7-10.7-.8-10.3-.3-13.2-1.4-13.5-5.6-.1-.9-.3-2.6-.5-3.7s-.6-4.2-.8-6.8c-.3-3.8-.1-4.6.9-3.7 1 .8 1.5.8 2.1-.1.4-.7.3-.9-.4-.5-1.5.9-2.6-1.3-2.8-5.6-.1-2.4.2-3.5.9-3.1.6.4.7.1.1-.8-1.3-2.1-1.5-4.9-.4-4.9.6 0 1-.5 1-1.1 0-.5-.4-.8-.8-.5-1.3.8-1.2-9.6.1-11.3.8-1 .8-1.3.1-.8-.9.5-1.2-2.2-1.3-10.1 0-5.9-.1-10.7-.1-10.7-.1 0-.3-.8-.5-1.8-.2-.9.2-1.7.8-1.7.8 0 .8-.3.2-.8-1.3-.9-1.4-39.3-.1-38.5.5.4.6.1.1-.8-1.4-2.1-1.4-19-.1-18.2.7.5.7.2 0-.8-1-1.2-1.8-13.5-1.4-21.4.1-1.1.1-2.7.1-3.5-.3-7.8-.1-16.2.3-16.8.2-.4.1-1.4-.3-2.1-.5-.7-.5-3-.1-5.2s.3-3.9-.2-3.9-.4-.8.1-1.9c.6-1 .8-2.1.4-2.4-.3-.4-.5-3.7-.4-7.4.1-3.7.2-7.4.1-8.1-.1-5.3.2-7.2 1.2-7.2.4 0 .8-.7.8-1.5s.6-1.6 1.3-1.7c5.3-.6 8.1-.8 14.4-.8 4.4.1 7.4-.4 7.9-1.1 1-1.7 1.2-11.1.3-13-.7-1.3-2.4-1.5-10.6-1.3-10.7.4-39.6.7-42.8.5-1.6-.1-3-2.1-6-8.9-22.8-50.8-65.9-90.3-118.5-108.7-9.9-3.4-23-6.9-30.9-8.1-2-.3-3.9-.8-4.3-1-.3-.2-4.4-.7-9-1-8.2-.6-11.3-1-11.3-1.5 0-.1-5.1-.3-11.2-.3-6.2-.1-11.3.1-11.3.4zm28.5 6.4c3.9.3 8.1.8 9.5 1.1 1.3.2 4.2.7 6.5 1 9.8 1.5 28.6 6.7 40 11.3 6.9 2.8 23.7 11.1 28.9 14.5 5 3.1 15.1 10.1 15.6 10.7.3.4 1.2 1.1 2.2 1.6 3.1 1.7 12.3 9.9 21.1 18.9 14.1 14.3 32.9 40.7 31.1 43.6-.4.8-.3.9.5.5 1.2-.8 10.5 17.9 9.6 19.4-.3.4-5.4.8-11.4.7-6-.1-10.7.1-10.5.4.2.4-.2.9-1 1.2-.7.3-2.4 3.5-3.7 7.1-2.5 6.9-3.3 7.8-4.2 4.8-1.1-3.1-8.1-15.7-12.6-22.2-9.6-14.2-23.5-28.8-36.6-38.6-4.4-3.2-8.1-6.2-8.3-6.7-.2-.4-.8-.7-1.4-.7-.5 0-2.2-.8-3.6-1.9-12.4-8.7-41.4-19.5-58.2-21.7-.8-.1-3.5-.5-6-1-8.8-1.5-34.6-1-47 1-11.9 1.9-29.2 7.2-41 12.7l-8.5 3.9 7.9-7.2c4.4-4 10.3-9.5 13-12.1l5.1-4.9-4.5 3c-6.8 4.5-24.3 15-26 15.7-1.4.5-1.6-1.1-1.5-12.4.1-9.2-.3-13.2-1.1-13.5-.7-.3-1 .2-.7 1.2.2.9-.3 4.6-1.2 8.2-.9 3.6-1.8 7.4-2 8.5-.2 1.1-.4 2-.5 2-.1 0-.4 1.1-.6 2.4-.2 1.4-.6 2.6-.8 2.8-.2.2-2.9-3.1-6.1-7.4-3.2-4.3-6.9-9-8.2-10.5-1.6-1.6-2.2-3.1-1.7-4 .4-.7.4-1-.1-.6-.4.4-1.6-.2-2.7-1.4-1.8-2.1-1.8-2.1 1.1-3.9 25.6-15.6 57.7-25.7 87.1-27.6 5.2-.3 9.6-.6 9.7-.7.4-.3 15.3.3 22.8.8zM127.7 86.7c9 14.1 10.3 16.4 9.7 17.5-.4.6-.3.8.3.5.9-.5 4.3 3.1 4.3 4.5 0 .2-2 .2-4.5 0s-4.3-.7-4.1-1.1c.3-.3-1.3-.6-3.5-.5-2.1 0-3.9-.3-3.9-.8s-.4-.7-.8-.4c-.7.4-6.8-.3-22.7-2.8-3.7-.6-3.6-.5 1.5 1.4 3 1.2 6.2 2.4 7 2.7.8.4 1.7.7 2 .7 5.4 1.2 9.8 3.1 9.3 3.9-.3.6-.1.7.5.3.9-.5 16.5 3.8 18.1 5 .4.4-4.1 4.3-5 4.4-1.1 0-23.1 15.2-22.7 15.6.2.2 3.4-1.2 7.1-3.1 3.7-1.9 6.7-3.2 6.7-3 0 .2 2.5-.9 5.6-2.6 6.6-3.7 8-3.3 2.7.7-10.7 8.1-29.8 30.1-37 42.7-7.8 13.6-15.7 32.7-17.7 42.7-.3 1.4-1 4.3-1.6 6.5-.5 2.2-1.3 6.2-1.6 9-.3 2.7-1.1 5.5-1.6 6.2-.5.6-.5 1.4 0 1.7.5.3.6 2.6.2 5.2-.7 4.8-.5 22.6.4 29.9 1.1 8.6 2.9 18.2 4.2 21.7.7 2.1 1.1 3.8.9 3.8-.2 0 .2 1.8 1 4.1s1.2 4.6.8 5.3c-.3.6-.2.8.2.4.5-.5 1.6 1.4 2.5 4 .9 2.6 2.5 6.4 3.4 8.4 1 2 1.4 4.2 1 4.9-.4.7-.3.9.3.6.5-.3 2 1.3 3.2 3.6 3.4 6.6 5.7 10.5 7.1 12.2.7.8 1 1.5.6 1.5-.3 0 .2.8 1.2 1.8 2.8 3 4.7 6.3 4.4 7.5-.2.7-.1.9.3.5s2.8 1.9 5.5 5c6.1 7.4 12.3 13.6 18.9 19.2 3 2.5 5.9 4.9 6.5 5.5 3.5 3.1 15.2 10.5 24 15.1 5.5 3 9.7 5.4 9.1 5.5-.5 0-4.4.2-8.5.3-4.1.2-8 .3-8.6.4-.9.2-1.3 10.2-.6 13.3.1.4 5.5.5 12 .3 15.5-.5 58.9-.4 67.7.1 4 .2 7.5-.1 8.2-.7.8-.6 1.3-3.4 1.3-6.9 0-6.8-.1-6.8-10.4-6.6-3.8.1-8.1-.3-9.7-1-4.9-2-10.6-11.8-12.4-21.4-.3-1.3-.7-3.5-1-4.9-.5-2.6-1.4-20.3-2.1-40.5-1-29 0-139.5 1.2-139.5.8 0 16.9 37.5 31.1 72.5 14.9 36.8 57.9 137.9 60 141.2 3.4 5.3 9 3.2 12.9-4.8 1.2-2.4 7.5-17.2 13.9-32.9 10.8-26.2 34.8-83.4 46.6-110.9 2.7-6.3 4.9-12 4.9-12.6 0-.6.5-1.6 1.2-2.3.6-.6 1.3-1.8 1.4-2.6.1-.7.9-2.9 1.7-4.7 3.6-7.9 5.6-12.9 5.1-12.9-.2 0 .7-2.1 2-4.8 1.4-2.6 4.1-8.8 6.1-13.7 3.7-8.9 5.1-11.5 6.4-11.5.7 0 .5 144.6-.1 151.5-.4 4-4.5 10.8-6 9.9-.7-.5-.8-.3-.4.5 1.5 2.3-16.5 23.9-30.5 36.7-27.3 25-65.5 42.9-102.9 48.3-18 2.7-38 2.9-54.6.6-43.9-5.9-83.4-25.3-114.5-56.4-10.4-10.4-17.2-18.7-25.3-30.9-6.4-9.7-18.6-32.7-18.6-35.1 0-.6-.4-1.9-1-2.9-.5-.9-2.3-5.9-4-11-2.5-7.8-3.7-12.8-6.5-26.3-2.3-11.3-3.5-40.5-2.1-52 1.3-9.8 1.6-12.5 2-14.6.3-1.2.8-4.2 1.1-6.7.4-2.5 1.1-4.3 1.6-4 .5.3.6-.1.3-.9-.5-1.5 1.8-11.6 3.8-16.5 1.3-3.1 1.2-2.7 2.2-7 .4-1.8 1.1-3 1.4-2.8.4.2.8-.6.8-1.7.3-4.1 16-34.4 21.3-40.9.6-.7 4-5.1 7.7-9.8 11.7-15 38-39.1 47-43 0 0 1.4 2.1 3.1 4.7zM245 130c0 .6.9.6 2.3.1 1.3-.5 3-.5 3.7-.1.8.5 2.1.5 3.1 0 .9-.5 1.8-.8 2-.6.2.2 3.6.7 7.4 1.1 3.9.3 7.9.8 9 1 3 .7 7.8 1.6 9.5 1.9 2.1.3 19.2 5.7 21 6.6.8.5 6.3 3.1 12.3 6 5.9 2.9 10.7 5.6 10.7 6.1s.6.9 1.3.9c1.1 0 6.1 3.7 17 12.4 2 1.6 3.4 3.4 3 3.9-.3.6-.1.7.4.4 1.3-.8 3.6 1.7 2.5 2.8-.4.5-.2.5.4.2 1-.6 9.4 8 13.2 13.5.9 1.3 2.2 2.9 2.9 3.6 1.7 1.7 8.5 12.9 8.4 13.7-.1.3.5 1.3 1.4 2.1 2 2 1.3 5.3-3 14.9-.7 1.6-7.6 18.3-15.3 37-14.2 34.5-31.4 75.3-35 83.5-2 4.3-2.1 4.4-3.1 2-.6-1.4-7.5-18.9-15.5-39-7.9-20.1-18.9-47.5-24.4-61-5.4-13.5-13.6-33.9-18.1-45.5-4.5-11.5-8.8-21.7-9.7-22.5-1.2-1.3-8-1.5-47.3-1.5l-45.8-.1v6.3c0 7.6.5 7.9 9.7 7.7 14.8-.4 21.2 4.5 22.6 17.6.3 2.5.5 19.8.6 38.5 0 30.6-.3 46.1-1.7 71-.2 4.4-.6 13.2-1 19.5-.3 6.3-.7 13.5-1 16-.2 2.5-.7 8.8-1.1 14-.6 9.2-.8 11.2-1.8 17.5-1 5.6-1.4 7.2-3.6 12.3-3.7 8.7-4.5 8.9-12.4 3.7-36.1-23.7-59.6-61.2-65.2-104-.9-6.8-.9-29.3 0-37.4.4-3 1.2-6.1 1.9-7 .7-.9.7-1.2.1-.8-.7.4-.6-1.6.4-5.8.9-3.5 1.9-6.2 2.3-5.9.4.2.5-.4.2-1.5-.2-1 .4-4 1.5-6.7s2.5-6.4 3.2-8.2c.7-1.7 1.7-3.2 2.2-3.2.5 0 .7-.4.4-.9-.8-1.2 7-16.2 9.1-17.9.9-.6 1.3-1.2.9-1.2s1.2-2.8 3.6-6.2c5.3-7.6 23.2-25.9 31.3-32 6.6-4.9 23.5-15.1 23.5-14.2 0 .4.6.2 1.3-.4 4-3.3 29.5-11.7 32.9-10.9 1 .3 1.6.2 1.3-.3-.5-.8 4.1-1.7 15-2.6 3.9-.3 7.2-.8 7.4-1 .8-.8 2.1-.4 2.1.6z"/><path d="M103.6 368.2c.3.5 1 .6 1.5.3 1.3-.9 1.1-1.2-.6-1.2-.8 0-1.2.4-.9.9zM255 140.4c.7.7 1.3.7 2 0 .6-.6.3-1-1-1s-1.6.4-1 1zM323.3 156.5c0 .8.4 1.2.9.9.5-.3.6-1 .3-1.5-.9-1.3-1.2-1.1-1.2.6zM327.5 159.1c-.4.6-.5 1.2-.2 1.5.2.3.7-.2 1-1.1.7-1.7.1-2-.8-.4zM134.6 198.2c.3.5 1 .6 1.5.3 1.3-.9 1.1-1.2-.6-1.2-.8 0-1.2.4-.9.9zM457.9 201.2c-.5 1.8-.6 3.8-.1 3.4.7-.8 1.2-3.6.6-3.6-.2 0-.4.1-.5.2zM457.9 211.2c-.5 1.8-.6 3.8-.1 3.4.7-.8 1.2-3.6.6-3.6-.2 0-.4.1-.5.2zM453 222c0 .5.5 1 1.1 1 .5 0 .7-.5.4-1-.3-.6-.8-1-1.1-1-.2 0-.4.4-.4 1zM459.3 232.5c0 .8.4 1.2.9.9.5-.3.6-1 .3-1.5-.9-1.3-1.2-1.1-1.2.6zM455.6 259.3c.3 1 .9 1.5 1.2 1.2.3-.3 0-1.1-.7-1.8-1-.9-1.1-.8-.5.6zM95.3 411.5c0 .8.4 1.2.9.9.5-.3.6-1 .3-1.5-.9-1.3-1.2-1.1-1.2.6zM413.5 420.1c-.4.6-.5 1.2-.2 1.5.2.3.7-.2 1-1.1.7-1.7.1-2-.8-.4zM422 420.3c0 .9-.5 1.6-1.2 1.4-.6-.1-1.3 1.1-1.4 2.8-.2 2 0 2.5.5 1.6.5-.8.7-2.1.3-2.9-.3-1-.1-1.3.6-.8 1.3.8 2.9-2 1.8-3.1-.3-.4-.6.1-.6 1zM428.1 420.1c1.3.8.6 1.3-1.4 1-.4-.1-1 .6-1.3 1.4-.3.8-1.1 1.2-1.8.9-.6-.3-.3.1.6.9 1 .8 1.4 1.8 1 2.2-.4.5-.2.5.5.2.6-.4.9-1.7.5-2.9-.3-1.2-.1-1.9.4-1.5.5.3 2-.2 3.2-1.1l2.2-1.7-2.7-.2c-1.9-.1-2.2.1-1.2.8zM433.4 420.5c.3.9 0 1.5-.9 1.5-.8 0-1.5.5-1.5 1.1 0 .5-.5.7-1.2.3-.7-.4-.8-.3-.4.4 1 1.7 5.6-1.5 4.9-3.4-.3-.8-.7-1.4-1-1.4-.3 0-.3.7.1 1.5zM443.4 420.2c-.4.7-.4 1 .1.6.4-.4 1.5-.2 2.4.5 1.4 1.1 1.4 1 .2-.6-1.6-2-1.8-2.1-2.7-.5zM403.9 420.2c-.5 1.9-.8 5-.4 4.6.7-.7 1.5-4.8.9-4.8-.2 0-.4.1-.5.2zM436.1 420.7c-.1 1.7 1.6 2.5 2.5 1.2.4-.7.3-.9-.4-.5-.5.3-1.3 0-1.5-.6-.4-.9-.6-1-.6-.1zM400 422c-.9.6-1 1-.3 1 .6 0 1.5-.5 1.8-1 .8-1.2.4-1.2-1.5 0zM415 421.9c0 .5.7 1.5 1.7 2.2 1.5 1.3 1.5 1.2.4-.9-1.2-2.3-2.1-2.8-2.1-1.3zM440 422.5c-1 1.3-1.1 1.8-.1 2.8.7.7 1.2.7 1.1.2-.5-2.3.1-3.6 1.2-2.9.7.4.8.3.4-.4-.9-1.5-1.1-1.5-2.6.3zM395.4 423.1c-.3.6-.2 1.5.3 2s.9.1.9-1.1c0-2.3-.2-2.4-1.2-.9zM410.1 423.6c0 1.1.3 1.4.6.6.3-.7.2-1.6-.1-1.9-.3-.4-.6.2-.5 1.3zM447.6 422.8c-.5.9-.2 3.9.5 4.6.3.3.5-.8.4-2.4 0-3.2-.1-3.5-.9-2.2zM405.5 423.9c-.3.5-.2 1.2.3 1.5.5.3.9-.1.9-.9 0-1.7-.3-1.9-1.2-.6zM412.1 424.8c-.7 1.4-.6 1.9.4 1.9.7 0 1.1-.7.7-1.5-.4-1.1-.1-1.3.8-.7.9.5 1.1.4.6-.3-1-1.6-1.4-1.5-2.5.6zM434 424c-.9.6-1 1-.3 1 .6 0 1.5-.5 1.8-1 .8-1.2.4-1.2-1.5 0zM474.6 423.8c-.3.5.1.9.9.9s1.2-.4.9-.9c-.3-.4-.7-.8-.9-.8-.2 0-.6.4-.9.8zM389 426c0 .5.5 1 1.1 1 .5 0 .7-.5.4-1-.3-.6-.8-1-1.1-1-.2 0-.4.4-.4 1zM421.5 426.1c-.4.6-.5 1.2-.2 1.5.2.3.7-.2 1-1.1.7-1.7.1-2-.8-.4zM427.1 427.3c-1.3 2.1-1.2 2.1.5.5 1-1 1.6-2 1.3-2.2-.3-.3-1.1.5-1.8 1.7zM457 426c0 .5.5 1 1.1 1 .5 0 .7-.5.4-1-.3-.6-.8-1-1.1-1-.2 0-.4.4-.4 1zM404.4 427.8c2.3 2.6 2.3 2.6 2.3.7 0-.8-.3-1.3-.5-1-.3.3-1.2-.1-2.1-.7-1-.8-.9-.4.3 1zM431 427c-1.1.7-1.1 1-.2 1 .7 0 1.1.4.7.9-.3.5 0 1.3.6 1.7.8.5.9.3.4-.6-.6-1-.3-1.2 1.1-.7 1.8.7 1.8.6.2-.6-1-.8-1.5-1.7-1.1-2 .9-1 0-.8-1.7.3zM435 426.4c0 .2.7.9 1.5 1.6 1.3 1.1 1.4 1 .9-.4-.5-1.4-2.4-2.3-2.4-1.2zM367.9 428.7c-1.3 1.6-1.2 1.7.4.4.9-.7 1.7-1.5 1.7-1.7 0-.8-.8-.3-2.1 1.3zM380 428c-.9.6-1 1-.3 1 .6 0 1.5-.5 1.8-1 .8-1.2.4-1.2-1.5 0zM414.6 427.8c-.3.5.1.9.9.9s1.2-.4.9-.9c-.3-.4-.7-.8-.9-.8-.2 0-.6.4-.9.8zM443.3 428.6c0 .9.4 1.1 1.2.4.7-.5 1.4-.9 1.6-.7.2.1.3 0 .1-.2-.7-1.1-2.9-.7-2.9.5zM410.9 429.7c-1.3 1.6-1.2 1.7.4.4 1.6-1.3 2.1-2.1 1.3-2.1-.2 0-1 .8-1.7 1.7zM439.7 430.3c.4.6 0 .8-.8.5-1-.4-1.5.1-1.5 1.3s.4 1.5 1.2.9c.6-.6 1.3-.9 1.5-.7.2.1.3 0 .2-.2-.2-.2.2-.9.7-1.6.7-.8.5-1.2-.5-1.2-.8 0-1.1.5-.8 1zM457 430.1c0 .5.5.7 1 .4.6-.3 1-.8 1-1.1 0-.2-.4-.4-1-.4-.5 0-1 .5-1 1.1zM423.5 431c-.3.6.1.7.9.4 1.8-.7 2.1-1.4.7-1.4-.6 0-1.3.4-1.6 1zM448 432.5c-.7.8-.9 1.5-.5 1.5s.1.8-.6 1.7c-1.3 1.6-1.2 1.7.4.4.9-.8 1.5-1.6 1.2-1.9-.3-.3 0-1.1.6-1.9.6-.7.9-1.3.6-1.3-.2 0-1 .7-1.7 1.5zM393 434.1c0 .5.5.7 1 .4.6-.3 1-.8 1-1.1 0-.2-.4-.4-1-.4-.5 0-1 .5-1 1.1zM419.3 435.3c-.1 1.1-.1 1.8 0 1.6.2-.2.8-1.1 1.5-2 .9-1.2.9-1.6-.1-1.6-.7 0-1.4.9-1.4 2zM427.7 435.2c1.9 2.1 3.1 2.5 1.4.5-.6-.8-.9-1.6-.6-1.9.3-.2-.2-.5-1-.5-1.3 0-1.3.3.2 1.9zM431 434.4c.7.7 1.3.7 2 0 .6-.6.3-1-1-1s-1.6.4-1 1zM461.6 433.8c-.3.5.1.9.9.9s1.2-.4.9-.9c-.3-.4-.7-.8-.9-.8-.2 0-.6.4-.9.8zM422.6 435.8c-.2.4.4.8 1.4.8 1 0 1.6-.4 1.4-.8-.3-.4-.9-.8-1.4-.8-.5 0-1.1.4-1.4.8zM454.6 436.2c.3.5 1 .6 1.5.3 1.3-.9 1.1-1.2-.6-1.2-.8 0-1.2.4-.9.9zM397 438.1c0 .5.5.7 1 .4.6-.3 1-.8 1-1.1 0-.2-.4-.4-1-.4-.5 0-1 .5-1 1.1zM401.5 438c-.3.5-.1 1 .4 1 .6 0 1.1-.5 1.1-1 0-.6-.2-1-.4-1-.3 0-.8.4-1.1 1zM411.5 439.1c-.4.6-.5 1.2-.2 1.5.2.3.7-.2 1-1.1.7-1.7.1-2-.8-.4zM413.3 443.1c-.2 2.3.3 2.5 1 .4.4-.8.3-1.6-.1-1.9-.4-.3-.9.4-.9 1.5zM437.3 441.7c.4.3.1 1.3-.6 2.2-1.1 1.4-1 1.4.5.2 1.6-1.2 1.6-3.1.1-3.1-.4 0-.3.3 0 .7zM443.5 442c-.3.5-.1 1 .4 1 .6 0 1.1-.5 1.1-1 0-.6-.2-1-.4-1-.3 0-.8.4-1.1 1z"/></svg>